<?xml version="1.0" standalone="no"?><!DOCTYPE svg PUBLIC "-//W3C//DTD SVG 1.1//EN" "http://www.w3.org/Graphics/SVG/1.1/DTD/svg11.dtd"><svg t="1498185243595" class="icon" style="" viewBox="0 0 1024 1024" version="1.1" xmlns="http://www.w3.org/2000/svg" p-id="1057" xmlns:xlink="http://www.w3.org/1999/xlink" width="48" height="48"><defs><style type="text/css"></style></defs><path d="M276.88 729.099c0 0 0 0 0 0 0 24.964 20.237 45.201 45.201 45.201 24.964 0 45.201-20.237 45.201-45.201 0 0 0 0 0 0 0 0 0 0 0 0 0-24.964-20.237-45.201-45.201-45.201-24.964 0-45.201 20.237-45.201 45.201s0 0 0 0z" p-id="1058" fill="#ff9900"></path><path d="M577.336 721.122c0 36.224 29.363 65.587 65.587 65.587s65.587-29.363 65.587-65.587c0-36.224-29.363-65.587-65.587-65.587-36.224 0-65.587 29.363-65.587 65.587z" p-id="1059" fill="#ff9900"></path><path d="M740.415 246.95l-8.863 2.659 1.772-15.952h-20.384l-4.431 15.953-515.827 66.473 43.429 251.71 447.582 2.659-5.318 46.089-450.241 2.659v23.93h473.285l4.432-11.966 25.702-357.623 101.038-20.385v-19.499l-92.175 13.297zM216.611 340.013l73.562-14.181v95.72h-59.381l-14.181-81.539zM299.924 546.52h-46.53l-18.169-101.924h64.7v101.924zM312.332 325.831l109.015-16.84v112.562h-103.699l-5.317-95.721zM429.324 546.52h-99.266l-7.977-101.924h107.243v101.924zM442.619 308.991l142.696-22.158v134.718h-136.491l-6.203-112.561zM589.745 546.52h-130.286l-7.977-101.924h138.263v101.924zM684.579 546.52h-68.246l-7.090-101.924h84.199l-8.863 101.924zM700.532 421.552h-86.857l-4.432-134.718 97.493-11.522-6.204 146.241z" p-id="1060" fill="#ff9900"></path></svg>