<?xml version="1.0" standalone="no"?><!DOCTYPE svg PUBLIC "-//W3C//DTD SVG 1.1//EN" "http://www.w3.org/Graphics/SVG/1.1/DTD/svg11.dtd"><svg t="1498358693274" class="icon" style="" viewBox="0 0 1024 1024" version="1.1" xmlns="http://www.w3.org/2000/svg" p-id="2380" xmlns:xlink="http://www.w3.org/1999/xlink" width="16" height="16"><defs><style type="text/css"></style></defs><path d="M682.269965 368.619452c0-94.754061-76.80834-171.560354-171.561377-171.560354s-171.558307 76.807317-171.558308 171.560354 76.806293 171.559331 171.558308 171.559331c94.754061 0 171.561377-76.807317 171.561377-171.559331z m-304.995389 0c0-73.680093 59.736523-133.436058 133.434012-133.436058 73.699536 0 133.436058 59.756989 133.436058 133.436058 0 73.697489-59.736523 133.436058-133.436058 133.436058-73.697489 0-133.434012-59.738569-133.434012-133.436058z m438.430424 0c0-168.432107-136.543839-304.995389-304.997436-304.995389-168.45155 0-304.994366 136.562259-304.994366 304.995389s304.995389 533.742187 304.99539 533.742187 304.996412-365.311103 304.996412-533.742187zM510.709611 101.747335c147.379629 0 266.872117 119.475092 266.872117 266.872117 0 147.398048-266.872117 476.556767-266.872117 476.556767S243.837494 516.016477 243.837494 368.619452 363.331006 101.747335 510.709611 101.747335z m134.820592 678.421311a2842.887882 2842.887882 0 0 1-24.320919 32.873711c81.394798 9.375531 137.309272 28.783557 137.309272 51.193963 0 31.573089-110.947881 57.187467-247.810992 57.187467-136.861064 0-247.807922-25.614377-247.807922-57.187467 0-22.409382 55.914474-41.816384 137.310296-51.193963a2834.091542 2834.091542 0 0 1-24.320919-32.873711c-89.934289 16.057721-151.114696 47.678906-151.114696 84.06665 0 52.645011 128.019699 95.311763 285.934265 95.311763s285.934265-42.667775 285.934264-95.311763c0.001023-36.387745-61.180408-68.007907-151.112649-84.06665z" fill="white" p-id="2381"></path></svg>