<?xml version="1.0" standalone="no"?><!DOCTYPE svg PUBLIC "-//W3C//DTD SVG 1.1//EN" "http://www.w3.org/Graphics/SVG/1.1/DTD/svg11.dtd"><svg t="1481828954450" class="icon" style="" viewBox="0 0 1024 1024" version="1.1" xmlns="http://www.w3.org/2000/svg" p-id="1905" xmlns:xlink="http://www.w3.org/1999/xlink" width="128" height="128"><defs><style type="text/css"></style></defs><path d="M404.510894 284.553825 348.137978 284.553825 348.137978 340.927763 291.765063 340.927763 291.765063 397.300678 348.137978 397.300678 348.137978 453.673593 404.510894 453.673593 404.510894 397.300678 460.883809 397.300678 460.883809 340.927763 404.510894 340.927763Z" p-id="1906" fill="#e16531"></path><path d="M876.633674 448.994014c-46.734394 0-84.559884 37.881772-84.559884 84.559884 0 46.676066 37.82549 84.557838 84.559884 84.557838 46.732347 0 84.559884-37.881772 84.559884-84.557838C961.193559 486.875786 923.366022 448.994014 876.633674 448.994014z" p-id="1907" fill="#e16531"></path><path d="M594.655512 538.119891l259.767302-275.776927c19.505239-20.068058 0.450255-51.975768-2.874467-53.272297l0.449231-0.451278C785.028327 131.276882 650.240481 59.062164 517.256724 59.062164c-249.056356 0-450.982298 201.929012-450.982298 450.984345 0 249.054309 201.926966 450.982298 450.982298 450.982298 119.961162 0 228.647537-47.12939 309.431421-123.514081 8.568143-9.638521 27.904537-26.213012 14.261818-47.127344L594.655512 538.119891zM517.256724 904.655891c-217.938638 0-394.611429-176.673815-394.611429-394.609383 0-217.937614 176.673815-394.611429 394.611429-394.611429 111.617124 0 211.847919 46.959521 283.555078 121.483842L517.256724 539.979238l259.708973 266.418792C707.571211 867.336938 616.922654 904.655891 517.256724 904.655891z" p-id="1908" fill="#e16531"></path></svg>